#N canvas 610 210 345 401 10;
#N canvas 147 147 1045 685 beatmangle 0;
#X obj 7 7 cnv 15 305 30 empty empty beatmangle 5 16 1 32 -261682 -66577
0;
#X obj 277 44 bng 15 250 50 0 empty empty empty 17 7 0 10 -262144 -1
-1;
#X obj 13 286 hsl 295 8 0 573300 0 0 empty empty empty -2 -8 0 10 -262144
-1 -1 10782 1;
#X obj 443 549 outlet~;
#X obj 496 548 outlet~;
#X obj 389 76 openpanel;
#X obj 389 141 soundfiler;
#X msg 327 253 range 0 \$1;
#X obj 443 494 *~;
#X obj 389 163 s \$0-sample_count;
#X obj 327 229 r \$0-sample_count;
#X obj 327 207 r \$0-sample_position;
#X obj 458 469 r \$0-sample_count;
#X obj 443 521 tabread4~ \$0-sampleloop;
#N canvas 0 22 450 300 (subpatch) 0;
#X array \$0-sampleloop 573300 float 2;
#X coords 0 1 573300 -1 300 200 1;
#X restore 10 84 graph;
#X obj 389 98 pack s \$0;
#X msg 389 120 read -resize \$1 \$2-sampleloop;
#X obj 294 523 snapshot~;
#X obj 294 546 s \$0-sample_position;
#X obj 294 499 metro 100;
#X obj 294 471 r \$0-sample_count;
#X obj 607 -37 r \$0-sample_count;
#X obj 607 -13 t f f;
#X obj 611 111 /;
#N canvas 530 461 271 159 len2freq 0;
#X obj 18 9 inlet;
#X obj 18 33 t b f;
#X msg 18 61 1;
#X obj 30 96 /;
#X obj 30 121 outlet;
#X text 69 6 Calculate the frequency required in order to play a single
loop at the correct tempo.;
#X connect 0 0 1 0;
#X connect 1 0 2 0;
#X connect 1 1 3 1;
#X connect 2 0 3 0;
#X connect 3 0 4 0;
#X restore 525 189 pd len2freq;
#X obj 653 247 t b f;
#X text 641 111 Calculate the length of the sample in seconds;
#X text 688 30 <- Change beat sample rate here;
#X obj 653 271 metro;
#X text 694 272 Metro will bang every 8th note;
#X obj 653 316 random 2;
#X obj 653 339 sel 0;
#X text 710 318 50% change of changing the loop settings;
#N canvas 328 382 621 386 randloop 0;
#X obj 20 15 inlet~;
#X obj 94 19 inlet;
#X msg 128 102 2;
#X msg 163 102 4;
#X msg 199 102 8;
#X msg 236 102 16;
#X msg 271 102 32;
#X msg 305 102 64;
#X obj 21 182 *~;
#X obj 21 208 wrap~;
#X obj 21 240 /~;
#X obj 21 273 outlet~;
#X text 165 16 Make the phasor loop over a smaller \, randomly chosen
\, range.;
#X msg 340 102 128;
#X msg 177 229 2;
#X msg 214 230 0;
#X obj 177 273 outlet;
#X text 246 228 This is the chance that the next 8th note will have
different settings: 50% for 2nd to 32nd notes \, 100% for 64th or 128th
note loops. This lowers the chance of having prolonged periods of 64th/128th
notes.;
#X obj 94 47 random 8;
#X obj 94 74 route 0 1 2 3 4 5 6 7;
#X msg 94 102 1;
#X connect 0 0 8 0;
#X connect 1 0 18 0;
#X connect 2 0 8 1;
#X connect 2 0 10 1;
#X connect 2 0 14 0;
#X connect 3 0 8 1;
#X connect 3 0 10 1;
#X connect 3 0 14 0;
#X connect 4 0 8 1;
#X connect 4 0 10 1;
#X connect 4 0 14 0;
#X connect 5 0 8 1;
#X connect 5 0 10 1;
#X connect 5 0 14 0;
#X connect 6 0 8 1;
#X connect 6 0 10 1;
#X connect 6 0 14 0;
#X connect 7 0 8 1;
#X connect 7 0 10 1;
#X connect 7 0 15 0;
#X connect 8 0 9 0;
#X connect 9 0 10 0;
#X connect 10 0 11 0;
#X connect 13 0 8 1;
#X connect 13 0 10 1;
#X connect 13 0 15 0;
#X connect 14 0 16 0;
#X connect 15 0 16 0;
#X connect 18 0 19 0;
#X connect 19 0 20 0;
#X connect 19 1 2 0;
#X connect 19 2 3 0;
#X connect 19 3 4 0;
#X connect 19 4 5 0;
#X connect 19 5 6 0;
#X connect 19 6 7 0;
#X connect 19 7 13 0;
#X connect 20 0 8 1;
#X connect 20 0 10 1;
#X connect 20 0 14 0;
#X restore 443 375 pd randloop;
#N canvas 410 373 519 256 randoffset 0;
#X obj 23 12 inlet;
#X obj 81 127 outlet;
#X text 159 51 Randomize the playhead position to any 8th note by generating
an offset. This will be added to the phasor and wrapped to the valid
loop range.;
#X obj 96 14 inlet;
#X obj 96 38 * 8;
#X obj 23 63 random;
#X obj 81 99 /;
#X connect 0 0 5 0;
#X connect 3 0 4 0;
#X connect 4 0 5 1;
#X connect 4 0 6 1;
#X connect 5 0 6 0;
#X connect 6 0 1 0;
#X restore 653 368 pd randoffset;
#X obj 443 413 +~;
#X obj 443 441 wrap~;
#X obj 443 317 phasor~;
#X text 743 369 Randomize playhead position;
#X text 293 375 Randomize loop settings;
#X text 201 563 Update the playhead visual indicator;
#X text 103 42 Click here to load beat loop;
#X floatatom 277 64 5 1 8 0 - - -;
#X obj 329 -8 loadbang;
#X msg 329 16 1;
#X obj 322 107 s \$0-bars;
#X obj 745 131 r \$0-bars;
#X msg 694 179 250;
#X obj 653 224 *;
#X obj 706 203 /;
#X obj 694 155 t b b f;
#X text 139 63 Number of bars in loop;
#X obj 634 57 t b f;
#X msg 634 11 44100;
#X floatatom 634 32 8 0 0 0 - - -;
#X text 5 307 [beatmangle / Colin Barry / www.loomer.co.uk colin@loomer.co.uk]
;
#X connect 1 0 5 0;
#X connect 5 0 15 0;
#X connect 6 0 9 0;
#X connect 7 0 2 0;
#X connect 8 0 13 0;
#X connect 8 0 17 0;
#X connect 10 0 7 0;
#X connect 11 0 2 0;
#X connect 12 0 8 1;
#X connect 13 0 4 0;
#X connect 13 0 3 0;
#X connect 15 0 16 0;
#X connect 16 0 6 0;
#X connect 17 0 18 0;
#X connect 19 0 17 0;
#X connect 20 0 19 0;
#X connect 21 0 22 0;
#X connect 22 0 23 0;
#X connect 22 1 53 0;
#X connect 23 0 24 0;
#X connect 23 0 48 0;
#X connect 24 0 37 0;
#X connect 25 0 28 0;
#X connect 25 1 28 1;
#X connect 28 0 30 0;
#X connect 30 0 31 0;
#X connect 31 0 34 0;
#X connect 31 0 33 1;
#X connect 33 0 35 0;
#X connect 33 1 30 1;
#X connect 34 0 35 1;
#X connect 35 0 36 0;
#X connect 36 0 8 0;
#X connect 37 0 33 0;
#X connect 42 0 45 0;
#X connect 43 0 44 0;
#X connect 44 0 42 0;
#X connect 46 0 50 0;
#X connect 46 0 34 1;
#X connect 47 0 49 0;
#X connect 48 0 25 0;
#X connect 49 0 48 1;
#X connect 50 0 48 0;
#X connect 50 1 47 0;
#X connect 50 2 49 1;
#X connect 52 0 23 0;
#X connect 52 1 23 1;
#X connect 53 0 54 0;
#X connect 54 0 52 0;
#X coords 0 -1 1 1 310 295 2 5 5;
#X restore -468 -52 pd beatmangle;
#X text 240 14 [colin@loomer.co.uk];
#X obj -461 255 hsl 128 15 0 127 0 0 empty empty empty -2 -8 0 10 -262144
-1 -1 12700 1;
#X obj -372 452 / 127;
#X obj -389 472 pack 0 50;
#X obj -367 494 line~;
#X obj -360 516 *~;
#X floatatom -312 266 0 0 0 0 - - -;
#X obj 351 418 *~;
#X obj 474 355 line~;
#X floatatom 506 172 0 0 0 0 - - -;
#X obj 474 329 pack 0 200;
#X obj 506 146 r window;
#X obj 85 250 r transpose;
#X obj 288 203 exp;
#X floatatom 288 229 6 0 0 0 - - -;
#X obj 288 319 /;
#X obj 415 249 * 0.001;
#X obj 583 425 line~;
#X obj 583 400 pack 0 200;
#X floatatom -53 416 0 0 0 0 - - -;
#X obj -53 390 r delay;
#X obj 351 444 +~;
#X obj 288 470 cos~;
#X obj 288 497 *~;
#X obj 288 526 +~;
#X obj 375 377 wrap~;
#X obj 520 420 *~;
#X obj 520 453 +~;
#X obj 457 480 cos~;
#X obj 457 507 *~;
#X obj 761 90 loadbang;
#X obj 415 276 t b f;
#X floatatom 288 345 6 0 0 0 - - -;
#X obj 375 350 +~ 0.5;
#X obj 288 418 -~ 0.5;
#X obj 288 444 *~ 0.5;
#X obj 457 419 -~ 0.5;
#X obj 457 452 *~ 0.5;
#X obj 288 256 - 1;
#X obj 90 282 * 0.05776;
#X obj 288 282 * -1;
#X text -286 265 <-- transposition;
#X text -292 285 (halftones);
#X text 351 223 speed;
#X text 350 237 change;
#X text 550 171 <--window (msec);
#X text 323 312 tape head;
#X obj 288 376 phasor~;
#X obj 583 376 max 1.5;
#X text -50 349 delay;
#X text -53 367 (msec);
#X obj 506 199 max 1;
#X text 324 325 rotation freq;
#X obj 351 470 vd~ G09-del;
#X obj 520 482 vd~ G09-del;
#X obj -470 537 delwrite~ G09-del 5000;
#X floatatom 639 309 5 0 0 0 - - -;
#X obj 637 281 random 5;
#X obj 560 311 metro 100;
#X obj -208 303 bng 15 250 50 0 empty empty empty 17 7 0 10 -262144
-1 -1;
#X obj 634 369 spigot;
#X obj -177 302 bng 15 250 50 0 empty empty empty 17 7 0 10 -262144
-1 -1;
#X obj 551 278 random 1000;
#X msg 728 343 0;
#X msg 688 342 1;
#X text 686 322 bt 7;
#X text 731 323 bt 8;
#X obj 639 342 0.5;
#X text 629 214 comment;
#X text 718 207 comment;
#X text -375 302 BANG TO START RANDOM PITCH;
#X text 4 432 comment;
#X text -376 288 comment;
#X text -57 48 MBIRA;
#X text -440 270 LOOP VOLUME;
#X msg 762 116 \; transpose -2 \; window 100 \; delay 15;
#X obj 285 568 send~ beatmanglev;
#X text -285 249 USE THIS;
#X obj -394 355 receive knob2;
#X connect 0 0 6 0;
#X connect 2 0 3 0;
#X connect 3 0 4 0;
#X connect 4 0 5 0;
#X connect 5 0 6 1;
#X connect 6 0 56 0;
#X connect 7 0 40 0;
#X connect 8 0 22 0;
#X connect 9 0 8 1;
#X connect 9 0 27 1;
#X connect 10 0 52 0;
#X connect 11 0 9 0;
#X connect 12 0 10 0;
#X connect 13 0 7 0;
#X connect 14 0 15 0;
#X connect 15 0 39 0;
#X connect 16 0 33 0;
#X connect 17 0 32 0;
#X connect 18 0 22 1;
#X connect 18 0 28 1;
#X connect 19 0 18 0;
#X connect 20 0 49 0;
#X connect 21 0 20 0;
#X connect 22 0 54 0;
#X connect 23 0 24 0;
#X connect 24 0 25 0;
#X connect 25 0 77 0;
#X connect 26 0 27 0;
#X connect 26 0 37 0;
#X connect 27 0 28 0;
#X connect 28 0 55 0;
#X connect 29 0 30 0;
#X connect 30 0 25 1;
#X connect 31 0 76 0;
#X connect 32 0 16 0;
#X connect 32 1 16 1;
#X connect 33 0 48 0;
#X connect 34 0 26 0;
#X connect 35 0 36 0;
#X connect 36 0 23 0;
#X connect 37 0 38 0;
#X connect 38 0 29 0;
#X connect 39 0 41 0;
#X connect 40 0 14 0;
#X connect 41 0 16 0;
#X connect 48 0 8 0;
#X connect 48 0 35 0;
#X connect 48 0 34 0;
#X connect 49 0 19 0;
#X connect 52 0 17 0;
#X connect 52 0 11 0;
#X connect 54 0 24 1;
#X connect 55 0 30 1;
#X connect 57 0 68 0;
#X connect 58 0 57 0;
#X connect 59 0 58 0;
#X connect 60 0 59 0;
#X connect 61 0 33 0;
#X connect 62 0 63 0;
#X connect 63 0 59 1;
#X connect 64 0 61 1;
#X connect 65 0 61 1;
#X connect 68 0 61 0;
#X connect 79 0 4 0;
