#N canvas 22 77 749 402 10;
#X obj -685 18 sample-looper~;
#X msg -773 -26 rec start;
#X msg -781 15 rec stop;
#X msg -695 -34 play start;
#X msg -689 -9 play stop;
#X msg -603 -74 1;
#X msg -610 -36 10;
#X msg -609 -5 0.1;
#X msg -462 76 bang;
#X obj -500 71 bng 15 250 50 0 empty empty empty 17 7 0 10 -262144
-1 -1;
#X text -465 238 outputs a bang at loop end;
#X obj 111 195 hsl 180 25 0 127 0 0 empty empty empty -2 -8 0 10 -204786
-1 -1 0 1;
#X obj -656 123 / 127;
#X obj -565 233 pack 0 50;
#X obj -561 263 line~;
#X obj -580 300 *~;
#X floatatom -557 -71 5 0 0 0 - - -, f 5;
#X obj -177 67 random 5;
#X obj -104 43 * 0.1;
#X obj -177 40 metro 100;
#X obj -99 77 spigot;
#X obj -136 14 random 1000;
#X msg -559 -8 0;
#X msg -563 -33 1;
#X floatatom -504 -71 5 0 0 0 - - -, f 5;
#X obj -111 74 random 5;
#X obj -110 47 metro 100;
#X obj -33 91 spigot;
#X msg -516 -7 0;
#X msg -516 -31 1;
#X obj -78 -20 random 100;
#X text -141 -47 bt 3;
#X text -573 81 slidr 1;
#X msg -388 -75 start;
#X msg -192 -64 stop;
#X obj -273 -77 *~ 0.7;
#X obj -222 -33 readsf~ 2;
#X obj -139 -10 *~ 0.7;
#X obj -100 -62 loadbang;
#X text -57 2 comment;
#X text -558 -88 UP;
#X text -513 -88 DOWN;
#X text -489 95 restart playback;
#X obj 110 168 bng 15 250 50 0 empty empty empty 17 7 0 10 -258113
-1 -1;
#X obj 109 148 bng 15 250 50 0 empty empty empty 17 7 0 10 -258113
-1 -1;
#X obj 109 127 bng 15 250 50 0 empty empty empty 17 7 0 10 -204800
-1 -1;
#X obj 226 149 bng 15 250 50 0 empty empty empty 17 7 0 10 -4034 -1
-1;
#X obj 226 170 bng 15 250 50 0 empty empty empty 17 7 0 10 -4034 -1
-1;
#X text 128 124 start sample;
#X text 128 147 Record start;
#X text 129 165 Record stop;
#X text 241 149 play start;
#X text 260 200 vol;
#X obj 109 228 bng 30 250 50 0 empty empty empty 17 7 0 10 -203904
-1 -1;
#X obj 110 267 bng 30 250 50 0 empty empty empty 17 7 0 10 -203904
-1 -1;
#X obj 150 267 bng 30 250 50 0 empty empty empty 17 7 0 10 -203904
-1 -1;
#X obj 199 231 bng 30 250 50 0 empty empty empty 17 7 0 10 -203904
-1 -1;
#X obj 265 230 bng 30 250 50 0 empty empty empty 17 7 0 10 -203904
-1 -1;
#X obj 200 268 bng 30 250 50 0 empty empty empty 17 7 0 10 -203904
-1 -1;
#X obj 265 267 bng 30 250 50 0 empty empty empty 17 7 0 10 -203904
-1 -1;
#X text 236 240 on;
#X text 234 272 off;
#X text 117 236 1;
#X text 115 274 10;
#X text 151 273 0.1;
#X text 202 238 up;
#X text 263 236 down;
#X obj -593 354 send~ bowl;
#X obj 115 305 hsl 180 25 0.1 10 1 0 empty empty empty -2 -8 0 10 -262144
-1 -1 0 1;
#X floatatom 112 331 5 0 0 0 - - -, f 5;
#X text 252 310 pitch;
#X msg -219 -92 open bowl_newer_and_louder.wav;
#X text 242 169 play stop;
#X text 260 107 bowl 29;
#X connect 0 0 15 0;
#X connect 0 1 9 0;
#X connect 1 0 0 0;
#X connect 2 0 0 0;
#X connect 3 0 0 0;
#X connect 4 0 0 0;
#X connect 5 0 0 2;
#X connect 6 0 0 2;
#X connect 7 0 0 2;
#X connect 8 0 0 3;
#X connect 11 0 12 0;
#X connect 12 0 13 0;
#X connect 13 0 14 0;
#X connect 14 0 15 1;
#X connect 15 0 67 0;
#X connect 16 0 18 0;
#X connect 17 0 16 0;
#X connect 18 0 20 0;
#X connect 19 0 17 0;
#X connect 20 0 0 2;
#X connect 21 0 19 1;
#X connect 22 0 20 1;
#X connect 23 0 20 1;
#X connect 24 0 27 0;
#X connect 25 0 24 0;
#X connect 26 0 25 0;
#X connect 27 0 0 2;
#X connect 28 0 27 1;
#X connect 29 0 27 1;
#X connect 30 0 26 1;
#X connect 33 0 36 0;
#X connect 34 0 36 0;
#X connect 36 0 35 0;
#X connect 36 1 37 0;
#X connect 37 0 0 1;
#X connect 38 0 71 0;
#X connect 38 0 19 0;
#X connect 38 0 21 0;
#X connect 38 0 30 0;
#X connect 38 0 26 0;
#X connect 43 0 2 0;
#X connect 44 0 1 0;
#X connect 45 0 33 0;
#X connect 46 0 3 0;
#X connect 47 0 4 0;
#X connect 53 0 5 0;
#X connect 54 0 6 0;
#X connect 55 0 7 0;
#X connect 56 0 23 0;
#X connect 57 0 29 0;
#X connect 58 0 22 0;
#X connect 59 0 28 0;
#X connect 68 0 69 0;
#X connect 69 0 0 2;
#X connect 71 0 36 0;
#X coords 0 -1 1 1 220 250 2 100 100;
