#N canvas 41 23 1440 851 10;
#X obj 103 -392 sample-looper~;
#X msg 272 -200 \; pd dsp 1;
#X msg 17 -456 rec start;
#X msg 30 -429 rec stop;
#X msg 86 -474 play start;
#X msg 94 -449 play stop;
#X text 375 -168 turn on sound computation;
#X msg 171 -425 1;
#X msg 175 -488 10;
#X msg 173 -459 0.1;
#X msg 304 -351 bang;
#X obj 262 -312 bng 15 250 50 0 empty empty empty 17 7 0 10 -262144
-1 -1;
#X text 148 -296 outputs a bang at loop end;
#X obj 117 202 hsl 128 15 0 127 0 0 empty empty empty -2 -8 0 10 -204786
-1 -1 0 1;
#X obj 148 -226 / 127;
#X obj 152 -204 pack 0 50;
#X obj 112 -201 line~;
#X obj 84 -202 *~;
#X floatatom 207 -480 5 0 0 0 - - -;
#X obj 643 -294 * 0.1;
#X obj 519 -442 spigot;
#X obj 756 -319 random 1000;
#X msg 206 -424 0;
#X msg 205 -454 1;
#X floatatom 252 -479 5 0 0 0 - - -;
#X obj 837 -284 random 5;
#X obj 828 -301 metro 100;
#X obj 829 -361 spigot;
#X msg 256 -427 0;
#X msg 253 -451 1;
#X obj 823 -330 random 100;
#X msg 593 -291 stop;
#X obj 616 -139 *~ 0.7;
#X obj 716 -186 readsf~ 2;
#X obj 586 -237 *~ 0.7;
#X text 848 -337 : : : :;
#X obj 602 -403 loadbang;
#X text 305 -334 restart playback;
#X text 210 -501 DOWN;
#X text 248 -501 UP;
#X obj 150 -510 adc~;
#X text 102 -490 comment;
#X obj 726 -248 random 25;
#X obj 730 -286 metro 20;
#X obj 113 163 bng 15 250 50 0 empty empty empty 17 7 0 10 -204800
-1 -1;
#X obj 113 140 bng 15 250 50 0 empty empty empty 17 7 0 10 -204800
-1 -1;
#X obj 257 27 bng 15 250 50 0 empty empty empty 17 7 0 10 -262144 -1
-1;
#X obj 214 141 bng 15 250 50 0 empty empty empty 17 7 0 10 -204800
-1 -1;
#X obj 215 162 bng 15 250 50 0 empty empty empty 17 7 0 10 -204800
-1 -1;
#X text 273 27 start sample;
#X text 134 139 Record start;
#X text 139 160 Record stop;
#X text 235 140 play start;
#X text 236 160 plqy stop;
#X text 251 199 vol;
#X obj 115 241 bng 15 250 50 0 empty empty empty 17 7 0 10 -203904
-1 -1;
#X obj 145 241 bng 15 250 50 0 empty empty empty 17 7 0 10 -203904
-1 -1;
#X obj 176 242 bng 15 250 50 0 empty empty empty 17 7 0 10 -203904
-1 -1;
#X obj 206 243 bng 15 250 50 0 empty empty empty 17 7 0 10 -203904
-1 -1;
#X obj 229 243 bng 15 250 50 0 empty empty empty 17 7 0 10 -203904
-1 -1;
#X obj 206 266 bng 15 250 50 0 empty empty empty 17 7 0 10 -203904
-1 -1;
#X obj 229 266 bng 15 250 50 0 empty empty empty 17 7 0 10 -203904
-1 -1;
#X text 251 241 on;
#X text 252 262 off;
#X text 115 218 1;
#X text 142 220 10;
#X text 171 219 0.1;
#X text 204 219 up;
#X text 225 218 down;
#X obj 49 -143 send~ livein2;
#X obj 313 151 vu 15 120 empty empty -1 -8 0 10 -66577 -1 1 0;
#X obj 442 -17 vu 15 120 empty empty -1 -8 0 10 -66577 -1 1 0;
#X obj 302 -76 pvu~;
#X obj 117 304 hsl 128 15 0.1 10 1 0 empty empty empty -2 -8 0 10 -262144
-1 -1 0 1;
#X floatatom 114 323 5 0 0 0 - - -;
#X text 255 302 pitch;
#X connect 0 0 17 0;
#X connect 0 1 11 0;
#X connect 2 0 0 0;
#X connect 3 0 0 0;
#X connect 4 0 0 0;
#X connect 5 0 0 0;
#X connect 7 0 0 2;
#X connect 8 0 0 2;
#X connect 9 0 0 2;
#X connect 10 0 0 3;
#X connect 10 0 36 0;
#X connect 13 0 14 0;
#X connect 14 0 15 0;
#X connect 15 0 16 0;
#X connect 16 0 17 1;
#X connect 17 0 69 0;
#X connect 18 0 19 0;
#X connect 19 0 20 0;
#X connect 20 0 0 2;
#X connect 21 0 43 1;
#X connect 22 0 20 1;
#X connect 23 0 20 1;
#X connect 24 0 27 0;
#X connect 25 0 24 0;
#X connect 26 0 25 0;
#X connect 27 0 0 2;
#X connect 28 0 27 1;
#X connect 29 0 27 1;
#X connect 30 0 26 1;
#X connect 31 0 33 0;
#X connect 33 0 32 0;
#X connect 33 1 34 0;
#X connect 34 0 0 1;
#X connect 36 0 21 0;
#X connect 36 0 30 0;
#X connect 36 0 26 0;
#X connect 36 0 23 0;
#X connect 36 0 43 0;
#X connect 40 0 0 1;
#X connect 40 0 72 0;
#X connect 42 0 18 0;
#X connect 43 0 42 0;
#X connect 44 0 3 0;
#X connect 45 0 2 0;
#X connect 47 0 4 0;
#X connect 48 0 5 0;
#X connect 55 0 7 0;
#X connect 56 0 8 0;
#X connect 57 0 9 0;
#X connect 58 0 23 0;
#X connect 59 0 29 0;
#X connect 60 0 22 0;
#X connect 61 0 28 0;
#X connect 72 0 70 0;
#X connect 73 0 74 0;
#X connect 74 0 0 2;
#X coords 0 -1 1 1 280 250 1 100 100;
