#N canvas 29 106 737 313 10;
#X obj 67 -364 sample-looper~;
#X msg 17 -456 rec start;
#X msg 30 -429 rec stop;
#X msg 86 -474 play start;
#X msg 94 -449 play stop;
#X msg 171 -425 1;
#X msg 175 -488 10;
#X msg 173 -459 0.1;
#X msg 304 -351 bang;
#X obj 262 -312 bng 15 250 50 0 empty empty empty 17 7 0 10 -262144
-1 -1;
#X text 148 -296 outputs a bang at loop end;
#X obj 110 186 hsl 180 25 0 127 0 0 empty empty empty -2 -8 0 10 -204786
-1 -1 0 1;
#X obj 148 -226 / 127;
#X obj 152 -204 pack 0 50;
#X obj 112 -201 line~;
#X obj 84 -202 *~;
#X floatatom 207 -480 5 0 0 0 - - -, f 5;
#X obj 643 -294 * 0.1;
#X obj 519 -442 spigot;
#X obj 756 -319 random 1000;
#X msg 206 -424 0;
#X msg 205 -454 1;
#X floatatom 252 -479 5 0 0 0 - - -, f 5;
#X obj 837 -284 random 5;
#X obj 828 -301 metro 100;
#X obj 829 -361 spigot;
#X msg 256 -427 0;
#X msg 253 -451 1;
#X obj 823 -330 random 100;
#X msg 593 -291 stop;
#X obj 616 -139 *~ 0.7;
#X obj 716 -186 readsf~ 2;
#X obj 586 -237 *~ 0.7;
#X text 848 -337 : : : :;
#X obj 602 -403 loadbang;
#X text 305 -334 restart playback;
#X text 210 -501 DOWN;
#X text 248 -501 UP;
#X obj 161 -512 adc~;
#X obj 80 -178 send~ livein;
#X text 102 -490 comment;
#X obj 726 -248 random 25;
#X obj 730 -286 metro 20;
#X obj 106 144 bng 30 250 50 0 empty empty empty 17 7 0 10 -258113
-1 -1;
#X obj 106 108 bng 30 250 50 0 empty empty empty 17 7 0 10 -258113
-1 -1;
#X obj 207 108 bng 30 250 50 0 empty empty empty 17 7 0 10 -4034 -1
-1;
#X obj 208 147 bng 30 250 50 0 empty empty empty 17 7 0 10 -4034 -1
-1;
#X text 240 125 play start;
#X text 259 192 vol;
#X obj 107 216 bng 30 250 50 0 empty empty empty 17 7 0 10 -203904
-1 -1;
#X obj 109 256 bng 30 250 50 0 empty empty empty 17 7 0 10 -203904
-1 -1;
#X obj 151 257 bng 30 250 50 0 empty empty empty 17 7 0 10 -203904
-1 -1;
#X obj 205 221 bng 30 250 50 0 empty empty empty 17 7 0 10 -203904
-1 -1;
#X obj 264 222 bng 30 250 50 0 empty empty empty 17 7 0 10 -203904
-1 -1;
#X obj 206 266 bng 30 250 50 0 empty empty empty 17 7 0 10 -203904
-1 -1;
#X obj 263 267 bng 30 250 50 0 empty empty empty 17 7 0 10 -203904
-1 -1;
#X text 239 227 on;
#X text 236 273 off;
#X text 115 218 1;
#X text 113 262 10;
#X text 153 262 0.1;
#X text 210 227 up;
#X text 262 229 down;
#X obj 324 190 vu 15 120 empty empty -1 -8 0 10 -66577 -1 1 0;
#X obj 111 302 hsl 180 25 0.1 10 1 0 empty empty empty -2 -8 0 10 -262144
-1 -1 0 1;
#X floatatom 108 331 5 0 0 0 - - -, f 5;
#X text 248 307 pitch;
#X text 137 127 Rec start;
#X text 136 162 Rec stop;
#X text 240 163 play stop;
#X text 287 103 live input 1;
#X obj 365 37 env~ 120;
#X obj 369 68 - 100;
#X obj 365 37 env~ 120;
#X obj 369 68 - 100;
#X connect 0 0 15 0;
#X connect 0 1 9 0;
#X connect 1 0 0 0;
#X connect 2 0 0 0;
#X connect 3 0 0 0;
#X connect 4 0 0 0;
#X connect 5 0 0 2;
#X connect 6 0 0 2;
#X connect 7 0 0 2;
#X connect 8 0 0 3;
#X connect 11 0 12 0;
#X connect 12 0 13 0;
#X connect 13 0 14 0;
#X connect 14 0 15 1;
#X connect 15 0 39 0;
#X connect 16 0 17 0;
#X connect 17 0 18 0;
#X connect 18 0 0 2;
#X connect 19 0 42 1;
#X connect 20 0 18 1;
#X connect 21 0 18 1;
#X connect 22 0 25 0;
#X connect 23 0 22 0;
#X connect 24 0 23 0;
#X connect 25 0 0 2;
#X connect 26 0 25 1;
#X connect 27 0 25 1;
#X connect 28 0 24 1;
#X connect 29 0 31 0;
#X connect 31 0 30 0;
#X connect 31 1 32 0;
#X connect 32 0 0 1;
#X connect 34 0 19 0;
#X connect 34 0 28 0;
#X connect 34 0 24 0;
#X connect 34 0 21 0;
#X connect 34 0 42 0;
#X connect 38 0 0 1;
#X connect 38 0 71 0;
#X connect 41 0 16 0;
#X connect 42 0 41 0;
#X connect 43 0 2 0;
#X connect 44 0 1 0;
#X connect 45 0 3 0;
#X connect 46 0 4 0;
#X connect 49 0 5 0;
#X connect 50 0 6 0;
#X connect 51 0 7 0;
#X connect 52 0 21 0;
#X connect 53 0 27 0;
#X connect 54 0 20 0;
#X connect 55 0 26 0;
#X connect 64 0 65 0;
#X connect 65 0 0 2;
#X connect 71 0 72 0;
#X connect 72 0 63 0;
#X connect 73 0 74 0;
#X coords 0 -1 1 1 280 250 2 100 100;
