#N canvas 0 60 800 420 10;
#X obj 236 45 dac~;
#X obj 211 -93 pack 0 50;
#X obj 253 -57 line~;
#X obj 246 14 *~;
#X obj 239 -3 receive~ skindrumoneampv;
#X obj 366 504 dac~;
#X obj 382 357 pack 0 50;
#X obj 396 399 line~;
#X obj 384 473 *~;
#X obj 327 429 receive~ skindrumtwoampv;
#X floatatom 370 324 5 0 0 0 - - -, f 5;
#X floatatom 215 -123 5 0 0 0 - - -, f 5;
#X obj 532 36 dac~;
#X obj 507 -115 pack 0 50;
#X obj 520 -59 line~;
#X obj 557 -1 *~;
#X obj 535 -26 receive~ livein;
#X floatatom 521 -168 5 0 0 0 - - -, f 5;
#X obj 512 -142 / 10;
#X obj 88 19 dac~;
#X obj 79 -106 pack 0 50;
#X obj 80 -82 line~;
#X obj 114 -20 *~;
#X floatatom 83 -163 5 0 0 0 - - -, f 5;
#X obj 43 -49 receive~ bowl;
#X obj 171 557 dac~;
#X obj 146 406 pack 0 50;
#X obj 159 462 line~;
#X obj 193 524 *~;
#X floatatom 155 335 5 0 0 0 - - -, f 5;
#X obj 151 379 / 10;
#X obj 174 495 receive~ drine;
#X obj 675 536 dac~;
#X obj 692 387 pack 0 50;
#X obj 705 443 line~;
#X obj 739 505 *~;
#X floatatom 706 334 5 0 0 0 - - -, f 5;
#X obj 697 360 / 10;
#X obj 720 476 receive~ livein2;
#X obj 112 117 vsl 15 128 0 1 0 0 empty empty empty 0 -9 0 10 -204786
-1 -1 0 1;
#X obj 133 121 vu 15 120 empty empty -1 -8 0 10 -66577 -1 1 0;
#X obj 184 120 vsl 15 128 0 1 0 0 empty empty empty 0 -9 0 10 -204786
-1 -1 0 1;
#X obj 210 122 vu 15 120 empty empty -1 -8 0 10 -66577 -1 1 0;
#X obj 260 121 vsl 15 128 0 1 0 0 empty empty empty 0 -9 0 10 -204786
-1 -1 0 1;
#X obj 285 122 vu 15 120 empty empty -1 -8 0 10 -66577 -1 1 0;
#X obj 331 124 vsl 15 128 0 1 0 0 empty empty empty 0 -9 0 10 -204786
-1 -1 0 1;
#X obj 354 125 vu 15 120 empty empty -1 -8 0 10 -66577 -1 1 0;
#X obj 482 127 vsl 15 128 0 1 0 0 empty empty empty 0 -9 0 10 -204786
-1 -1 0 1;
#X obj 503 133 vu 15 120 empty empty -1 -8 0 10 -66577 -1 1 0;
#X obj 552 127 vsl 15 128 0 1 0 0 empty empty empty 0 -9 0 10 -204786
-1 -1 0 1;
#X obj 576 132 vu 15 120 empty empty -1 -8 0 10 -66577 -1 1 0;
#X obj 735 75 dac~;
#X obj 665 -78 pack 0 50;
#X obj 678 -22 line~;
#X obj 757 42 *~;
#X floatatom 679 -131 5 0 0 0 - - -, f 5;
#X obj 670 -105 / 10;
#X obj 630 129 vsl 15 128 0 1 0 0 empty empty empty 0 -9 0 10 -204786
-1 -1 0 1;
#X obj 655 133 vu 15 120 empty empty -1 -8 0 10 -66577 -1 1 0;
#X obj 693 11 receive~ graindelay3;
#X text 624 260 granulator;
#X text 113 256 bowl;
#X text 189 257 drine;
#X text 258 254 drum 1;
#X text 336 255 drum 2;
#X obj 550 506 dac~;
#X obj 566 359 pack 0 50;
#X obj 580 401 line~;
#X obj 568 475 *~;
#X floatatom 554 326 5 0 0 0 - - -, f 5;
#X obj 405 124 vsl 15 128 0 1 0 0 empty empty empty 0 -9 0 10 -204786
-1 -1 0 1;
#X obj 432 130 vu 15 120 empty empty -1 -8 0 10 -66577 -1 1 0;
#X text 414 255 mbira;
#X obj 509 433 receive~ mbirasampv;
#X obj 151 5 env~ 120;
#X obj 137 26 - 100;
#X text 483 263 live 1;
#X text 554 258 live 2;
#X obj 218 443 env~ 120;
#X obj 221 463 - 100;
#X obj 755 107 env~ 120;
#X obj 759 138 - 100;
#X obj 292 27 env~ 120;
#X obj 288 42 - 100;
#X obj 755 107 env~ 120;
#X obj 759 138 - 100;
#X obj 755 107 env~ 120;
#X obj 759 138 - 100;
#X obj 582 21 env~ 120;
#X obj 586 52 - 100;
#X obj 582 21 env~ 120;
#X obj 586 52 - 100;
#X obj 309 329 env~ 120;
#X obj 291 297 - 100;
#X obj 498 369 env~ 120;
#X obj 501 389 - 100;
#X obj 759 326 env~ 120;
#X obj 762 346 - 100;
#X obj 75 -135 / 10;
#X obj 378 -160 netreceive 3000;
#X obj 91 61 receive channel_2;
#X floatatom 10 60 5 0 0 0 - - -, f 5;
#X obj 305 -97 send channel_1;
#X obj 307 -75 send channel_2;
#X obj 11 42 receive channel_1;
#X floatatom 89 78 5 0 0 0 - - -, f 5;
#X obj 410 -96 send channel_3;
#X obj 168 80 receive channel_3;
#X obj 413 -74 send channel_4;
#X obj 301 79 receive channel_4;
#X floatatom 344 64 5 0 0 0 - - -, f 5;
#X obj 305 -54 send channel_5;
#X obj 410 -53 send channel_6;
#X obj 308 -32 send channel_7;
#X obj 413 -31 send channel_8;
#X obj 342 -138 route 1 2 3 4 5 6 7 8;
#X obj 374 21 receive channel_5;
#X obj 402 47 receive channel_6;
#X obj 454 69 receive channel_7;
#X obj 591 76 receive channel_8;
#X connect 1 0 2 0;
#X connect 2 0 3 1;
#X connect 3 0 0 1;
#X connect 3 0 0 0;
#X connect 3 0 82 0;
#X connect 4 0 3 0;
#X connect 6 0 7 0;
#X connect 7 0 8 1;
#X connect 8 0 5 1;
#X connect 8 0 5 0;
#X connect 8 0 92 0;
#X connect 9 0 8 0;
#X connect 10 0 6 0;
#X connect 11 0 1 0;
#X connect 13 0 14 0;
#X connect 14 0 15 1;
#X connect 15 0 12 0;
#X connect 15 0 12 1;
#X connect 15 0 88 0;
#X connect 16 0 15 0;
#X connect 17 0 18 0;
#X connect 18 0 13 0;
#X connect 20 0 21 0;
#X connect 21 0 22 1;
#X connect 22 0 19 0;
#X connect 22 0 19 1;
#X connect 22 0 74 0;
#X connect 23 0 98 0;
#X connect 24 0 22 0;
#X connect 26 0 27 0;
#X connect 27 0 28 1;
#X connect 28 0 25 0;
#X connect 28 0 25 1;
#X connect 28 0 78 0;
#X connect 29 0 30 0;
#X connect 30 0 26 0;
#X connect 31 0 28 0;
#X connect 33 0 34 0;
#X connect 34 0 35 1;
#X connect 35 0 32 0;
#X connect 35 0 32 1;
#X connect 35 0 96 0;
#X connect 36 0 37 0;
#X connect 37 0 33 0;
#X connect 38 0 35 0;
#X connect 39 0 23 0;
#X connect 41 0 29 0;
#X connect 43 0 11 0;
#X connect 45 0 10 0;
#X connect 47 0 17 0;
#X connect 49 0 36 0;
#X connect 52 0 53 0;
#X connect 53 0 54 1;
#X connect 54 0 51 0;
#X connect 54 0 51 1;
#X connect 54 0 80 0;
#X connect 55 0 56 0;
#X connect 56 0 52 0;
#X connect 57 0 55 0;
#X connect 59 0 54 0;
#X connect 66 0 67 0;
#X connect 67 0 68 1;
#X connect 68 0 65 1;
#X connect 68 0 65 0;
#X connect 68 0 94 0;
#X connect 69 0 66 0;
#X connect 70 0 69 0;
#X connect 73 0 68 0;
#X connect 74 0 75 0;
#X connect 75 0 40 0;
#X connect 78 0 79 0;
#X connect 79 0 42 1;
#X connect 80 0 81 0;
#X connect 81 0 58 0;
#X connect 82 0 83 0;
#X connect 83 0 44 0;
#X connect 84 0 85 0;
#X connect 86 0 87 0;
#X connect 88 0 89 0;
#X connect 89 0 48 0;
#X connect 90 0 91 0;
#X connect 92 0 93 0;
#X connect 93 0 46 0;
#X connect 94 0 95 0;
#X connect 95 0 71 0;
#X connect 96 0 97 0;
#X connect 97 0 50 0;
#X connect 98 0 20 0;
#X connect 99 0 115 0;
#X connect 100 0 105 0;
#X connect 104 0 39 0;
#X connect 104 0 101 0;
#X connect 105 0 41 0;
#X connect 107 0 43 0;
#X connect 109 0 110 0;
#X connect 109 0 45 0;
#X connect 115 0 102 0;
#X connect 115 1 103 0;
#X connect 115 2 106 0;
#X connect 115 3 108 0;
#X connect 115 4 111 0;
#X connect 115 5 112 0;
#X connect 115 6 113 0;
#X connect 115 7 114 0;
#X connect 116 0 70 0;
#X connect 117 0 47 0;
#X connect 118 0 49 0;
#X connect 119 0 57 0;
#X coords 0 -1 1 1 620 190 1 100 100;
