#N canvas 582 395 341 230 10;
#X obj 91 95 sample-looper~;
#X msg 242 291 \; pd dsp 1;
#X msg 7 40 rec start;
#X msg 23 70 rec stop;
#X msg 75 39 play start;
#X msg 88 67 play stop;
#X text 239 269 turn on sound computation;
#X msg 161 28 1;
#X msg 163 49 10;
#X msg 163 75 0.1;
#X msg 285 134 bang;
#X obj 245 170 bng 15 250 50 0 empty empty empty 17 7 0 10 -262144
-1 -1;
#X text 163 187 outputs a bang at loop end;
#X obj 106 169 hsl 128 15 0 127 0 0 empty empty empty -2 -8 0 10 -262144
-1 -1 12700 1;
#X obj 97 248 / 127;
#X obj 162 284 pack 0 50;
#X obj 114 285 line~;
#X obj 81 286 *~;
#X floatatom 201 25 5 0 0 0 - - -;
#X obj 802 121 random 5;
#X obj 510 64 * 0.1;
#X obj 802 94 metro 100;
#X obj 515 93 spigot;
#X obj 793 65 random 1000;
#X msg 203 74 0;
#X msg 204 50 1;
#X floatatom 245 25 5 0 0 0 - - -;
#X obj 907 113 random 5;
#X obj 908 86 metro 100;
#X obj 509 37 spigot;
#X msg 248 71 0;
#X msg 246 51 1;
#X obj 885 62 random 100;
#X msg 12 18 start;
#X msg 589 104 stop;
#X obj 535 98 *~ 0.7;
#X obj 577 126 readsf~ 2;
#X obj 648 153 *~ 0.7;
#X msg 577 81 open musicboxmbira.wav;
#X obj 78 315 send~ mbirasampv;
#X text 276 156 restart playback;
#X obj 588 38 loadbang;
#X text 193 6 UP;
#X text 233 6 DOWN;
#X connect 0 0 17 0;
#X connect 0 1 11 0;
#X connect 2 0 0 0;
#X connect 3 0 0 0;
#X connect 4 0 0 0;
#X connect 5 0 0 0;
#X connect 7 0 0 2;
#X connect 8 0 0 2;
#X connect 9 0 0 2;
#X connect 10 0 0 3;
#X connect 13 0 14 0;
#X connect 14 0 15 0;
#X connect 15 0 16 0;
#X connect 16 0 17 1;
#X connect 17 0 39 0;
#X connect 18 0 20 0;
#X connect 19 0 18 0;
#X connect 20 0 22 0;
#X connect 21 0 19 0;
#X connect 22 0 0 2;
#X connect 23 0 21 1;
#X connect 24 0 22 1;
#X connect 25 0 22 1;
#X connect 26 0 29 0;
#X connect 27 0 26 0;
#X connect 28 0 27 0;
#X connect 29 0 0 2;
#X connect 30 0 29 1;
#X connect 31 0 29 1;
#X connect 32 0 28 1;
#X connect 33 0 36 0;
#X connect 34 0 36 0;
#X connect 36 0 35 0;
#X connect 36 1 37 0;
#X connect 37 0 0 1;
#X connect 38 0 36 0;
#X connect 41 0 38 0;
#X connect 41 0 23 0;
#X connect 41 0 21 0;
#X connect 41 0 32 0;
#X connect 41 0 28 0;
