#N canvas 572 400 237 175 10;
#X obj -383 134 dac~;
#X obj -396 -30 pack 0 50;
#X obj -394 25 line~;
#X obj -387 105 *~;
#X obj -430 83 receive~ beatmanglev;
#X text -432 -238 beat mang;
#X obj -290 135 dac~;
#X obj -315 -3 pack 0 50;
#X obj -273 33 line~;
#X obj -280 104 *~;
#X text -531 -177 skindrumone;
#X obj -293 76 receive~ skindrumoneampv;
#X obj -498 135 dac~;
#X obj -482 -12 pack 0 50;
#X obj -468 30 line~;
#X obj -498 96 *~;
#X obj -537 60 receive~ skindrumtwoampv;
#X text -531 -238 skindrumtwo;
#X obj -278 -226 receive knob1;
#X obj -218 -162 receive knob2;
#X floatatom -510 -216 5 0 0 0 - - -;
#X obj -120 -108 receive knob3;
#X floatatom -494 -160 5 0 0 0 - - -;
#X floatatom -429 -214 5 0 0 0 - - -;
#X obj -143 135 dac~;
#X obj -168 -16 pack 0 50;
#X obj -155 40 line~;
#X obj -121 102 *~;
#X obj -140 73 receive~ mbirasampv;
#X obj -17 -61 receive knob4;
#X text -409 -168 mbira;
#X floatatom -424 -152 5 0 0 0 - - -;
#X obj -113 -77 * 10;
#X obj -297 -196 * 2;
#X obj -196 -137 * 8;
#X obj 12 -16 * 7;
#X obj -215 313 dac~;
#X obj -240 162 pack 0 50;
#X obj -227 218 line~;
#X obj -193 280 *~;
#X obj -212 251 receive~ livein;
#X floatatom -460 -106 5 0 0 0 - - -;
#X obj -449 -71 / 10;
#X connect 1 0 2 0;
#X connect 2 0 3 1;
#X connect 3 0 0 1;
#X connect 3 0 0 0;
#X connect 4 0 3 0;
#X connect 7 0 8 0;
#X connect 8 0 9 1;
#X connect 9 0 6 1;
#X connect 9 0 6 0;
#X connect 11 0 9 0;
#X connect 13 0 14 0;
#X connect 14 0 15 1;
#X connect 15 0 12 1;
#X connect 15 0 12 0;
#X connect 16 0 15 0;
#X connect 18 0 33 0;
#X connect 19 0 34 0;
#X connect 20 0 13 0;
#X connect 21 0 32 0;
#X connect 22 0 7 0;
#X connect 23 0 1 0;
#X connect 25 0 26 0;
#X connect 26 0 27 1;
#X connect 27 0 24 0;
#X connect 27 0 24 1;
#X connect 28 0 27 0;
#X connect 29 0 35 0;
#X connect 31 0 25 0;
#X connect 32 0 22 0;
#X connect 33 0 20 0;
#X connect 34 0 23 0;
#X connect 35 0 31 0;
#X connect 37 0 38 0;
#X connect 38 0 39 1;
#X connect 39 0 36 0;
#X connect 39 0 36 1;
#X connect 40 0 39 0;
#X connect 41 0 42 0;
#X connect 42 0 37 0;
