#N canvas 759 320 914 773 10;
#X obj 236 45 dac~;
#X obj 211 -93 pack 0 50;
#X obj 253 -57 line~;
#X obj 246 14 *~;
#X obj 233 -27 receive~ skindrumoneampv;
#X obj 366 504 dac~;
#X obj 382 357 pack 0 50;
#X obj 396 399 line~;
#X obj 384 473 *~;
#X obj 327 429 receive~ skindrumtwoampv;
#X obj 50 87 receive knob1;
#X obj 147 82 receive knob2;
#X floatatom 370 324 5 0 0 0 - - -;
#X obj 249 87 receive knob3;
#X floatatom 215 -123 5 0 0 0 - - -;
#X obj 343 85 receive knob4;
#X obj 481 46 dac~;
#X obj 456 -105 pack 0 50;
#X obj 469 -49 line~;
#X obj 503 13 *~;
#X obj 484 -16 receive~ livein;
#X floatatom 470 -158 5 0 0 0 - - -;
#X obj 461 -132 / 10;
#X obj 104 45 dac~;
#X obj 79 -106 pack 0 50;
#X obj 92 -50 line~;
#X obj 126 12 *~;
#X floatatom 83 -163 5 0 0 0 - - -;
#X obj 75 -135 / 10;
#X obj 75 -18 receive~ bowl;
#X obj 171 557 dac~;
#X obj 146 406 pack 0 50;
#X obj 159 462 line~;
#X obj 193 524 *~;
#X floatatom 155 335 5 0 0 0 - - -;
#X obj 151 379 / 10;
#X obj 174 495 receive~ drine;
#X obj 508 521 dac~;
#X obj 525 372 pack 0 50;
#X obj 538 428 line~;
#X obj 572 490 *~;
#X floatatom 539 319 5 0 0 0 - - -;
#X obj 530 345 / 10;
#X obj 553 461 receive~ livein2;
#X obj 119 128 vsl 15 128 0 1 0 0 empty empty empty 0 -9 0 10 -262144
-1 -1 0 1;
#X obj 126 -80 pvu~;
#X obj 149 135 vu 15 120 empty empty -1 -8 0 10 -66577 -1 1 0;
#X obj 205 128 vsl 15 128 0 1 0 0 empty empty empty 0 -9 0 10 -262144
-1 -1 0 1;
#X obj 198 343 pvu~;
#X obj 233 136 vu 15 120 empty empty -1 -8 0 10 -66577 -1 1 0;
#X obj 286 129 vsl 15 128 0 1 0 0 empty empty empty 0 -9 0 10 -262144
-1 -1 0 1;
#X obj 316 136 vu 15 120 empty empty -1 -8 0 10 -66577 -1 1 0;
#X obj 372 129 vsl 15 128 0 1 0 0 empty empty empty 0 -9 0 10 -262144
-1 -1 0 1;
#X obj 400 137 vu 15 120 empty empty -1 -8 0 10 -66577 -1 1 0;
#X obj 294 1 pvu~;
#X obj 344 385 pvu~;
#X obj 460 132 vsl 15 128 0 1 0 0 empty empty empty 0 -9 0 10 -262144
-1 -1 0 1;
#X obj 490 139 vu 15 120 empty empty -1 -8 0 10 -66577 -1 1 0;
#X obj 546 132 vsl 15 128 0 1 0 0 empty empty empty 0 -9 0 10 -262144
-1 -1 0 1;
#X obj 574 140 vu 15 120 empty empty -1 -8 0 10 -66577 -1 1 0;
#X text 450 267 live input 1;
#X text 539 267 live input 2;
#X obj 516 61 pvu~;
#X obj 596 361 pvu~;
#X obj 624 34 dac~;
#X obj 599 -117 pack 0 50;
#X obj 612 -61 line~;
#X obj 646 1 *~;
#X floatatom 613 -170 5 0 0 0 - - -;
#X obj 604 -144 / 10;
#X obj 693 24 pvu~;
#X obj 623 135 vsl 15 128 0 1 0 0 empty empty empty 0 -9 0 10 -262144
-1 -1 0 1;
#X obj 646 144 vu 15 120 empty empty -1 -8 0 10 -66577 -1 1 0;
#X obj 627 -28 receive~ graindelay3;
#X text 630 268 granulator;
#X text 121 261 plates 1;
#X text 211 261 plates 2;
#X text 293 259 pots 1;
#X text 374 261 pots 2;
#X connect 1 0 2 0;
#X connect 2 0 3 1;
#X connect 3 0 0 1;
#X connect 3 0 0 0;
#X connect 3 0 54 0;
#X connect 4 0 3 0;
#X connect 6 0 7 0;
#X connect 7 0 8 1;
#X connect 8 0 5 1;
#X connect 8 0 5 0;
#X connect 8 0 55 0;
#X connect 9 0 8 0;
#X connect 10 0 44 0;
#X connect 11 0 47 0;
#X connect 12 0 6 0;
#X connect 13 0 50 0;
#X connect 14 0 1 0;
#X connect 15 0 52 0;
#X connect 17 0 18 0;
#X connect 18 0 19 1;
#X connect 19 0 16 0;
#X connect 19 0 16 1;
#X connect 19 0 62 0;
#X connect 20 0 19 0;
#X connect 21 0 22 0;
#X connect 22 0 17 0;
#X connect 24 0 25 0;
#X connect 25 0 26 1;
#X connect 26 0 23 0;
#X connect 26 0 23 1;
#X connect 26 0 45 0;
#X connect 27 0 28 0;
#X connect 28 0 24 0;
#X connect 29 0 26 0;
#X connect 31 0 32 0;
#X connect 32 0 33 1;
#X connect 33 0 30 0;
#X connect 33 0 30 1;
#X connect 33 0 48 0;
#X connect 34 0 35 0;
#X connect 35 0 31 0;
#X connect 36 0 33 0;
#X connect 38 0 39 0;
#X connect 39 0 40 1;
#X connect 40 0 37 0;
#X connect 40 0 37 1;
#X connect 40 0 63 0;
#X connect 41 0 42 0;
#X connect 42 0 38 0;
#X connect 43 0 40 0;
#X connect 44 0 27 0;
#X connect 45 0 46 0;
#X connect 47 0 34 0;
#X connect 48 0 49 0;
#X connect 50 0 14 0;
#X connect 52 0 12 0;
#X connect 54 0 51 0;
#X connect 55 0 53 0;
#X connect 56 0 21 0;
#X connect 58 0 41 0;
#X connect 62 0 57 0;
#X connect 63 0 59 0;
#X connect 65 0 66 0;
#X connect 66 0 67 1;
#X connect 67 0 64 0;
#X connect 67 0 64 1;
#X connect 67 0 70 0;
#X connect 68 0 69 0;
#X connect 69 0 65 0;
#X connect 70 0 72 0;
#X connect 71 0 68 0;
#X connect 73 0 67 0;
#X coords 0 -1 1 1 600 200 1 100 100;
