#N canvas 470 350 500 406 10;
#N canvas 146 163 525 433 serin 0;
#X obj 180 61 cnv 15 15 15 empty \$0-number-canvas 2 4 8 0 14 -233017
-1 0;
#X obj 200 225 s \$0-number-canvas;
#X obj 60 61 hradio 15 1 1 8 empty empty empty 0 -6 0 8 -225271 -1
-1 2;
#X obj 60 13 inlet;
#X msg 200 202 label \$1;
#X obj 200 180 makefilename %d;
#X obj 59 108 int;
#X msg 59 206 open \$1;
#X obj 59 377 outlet;
#X msg 201 306 set \$1 \$2;
#X obj 59 266 trigger bang anything;
#X obj 201 286 list;
#X obj 383 383 outlet;
#X obj 384 22 netreceive 34567;
#X obj 477 43 tgl 15 0 empty empty empty 0 -6 0 10 -262144 -1 -1 0
1;
#X obj 384 41 bng 15 250 50 0 empty empty empty 0 -6 0 10 -262144 -1
-1;
#X obj 187 24 delay 15000;
#X text 345 379 close;
#X text 209 4 for open/close automation in Makefile;
#X obj 184 95 bang;
#X obj 184 137 send ARDUINO_TEST_RESET;
#X msg 184 116 set 0;
#X connect 2 0 6 0;
#X connect 2 0 19 0;
#X connect 3 0 2 0;
#X connect 4 0 1 0;
#X connect 5 0 4 0;
#X connect 6 0 5 0;
#X connect 6 0 7 0;
#X connect 7 0 10 0;
#X connect 9 0 8 0;
#X connect 10 0 8 0;
#X connect 10 1 11 0;
#X connect 11 0 9 0;
#X connect 13 0 15 0;
#X connect 13 1 14 0;
#X connect 15 0 16 0;
#X connect 15 0 12 0;
#X connect 16 0 2 0;
#X connect 19 0 21 0;
#X connect 21 0 20 0;
#X coords 0 -1 1 1 136 17 1 60 60;
#X restore 33 -122 pd serin;
#X msg 40 -63 open 2;
#X text 119 -59;
#X obj 45 -21 arduino 1;
#N canvas 981 48 499 396 display 0;
#X obj 6 7 inlet;
#X obj 6 28 mapping/resample 100;
#X obj 6 50 outlet;
#X obj 54 50 inlet;
#X obj 54 71 mapping/resample 100;
#X obj 54 93 outlet;
#X obj 103 93 inlet;
#X obj 103 114 mapping/resample 100;
#X obj 103 136 outlet;
#X obj 151 136 inlet;
#X obj 151 157 mapping/resample 100;
#X obj 151 179 outlet;
#X obj 200 179 inlet;
#X obj 200 200 mapping/resample 100;
#X obj 200 222 outlet;
#X obj 247 222 inlet;
#X obj 247 243 mapping/resample 100;
#X obj 247 265 outlet;
#X obj 295 265 inlet;
#X obj 295 286 mapping/resample 100;
#X obj 295 308 outlet;
#X obj 345 308 inlet;
#X obj 345 329 mapping/resample 100;
#X obj 345 351 outlet;
#X obj 60 290 receive ARDUINO_TEST_RESET;
#X connect 0 0 1 0;
#X connect 1 0 2 0;
#X connect 3 0 4 0;
#X connect 4 0 5 0;
#X connect 6 0 7 0;
#X connect 7 0 8 0;
#X connect 9 0 10 0;
#X connect 10 0 11 0;
#X connect 12 0 13 0;
#X connect 13 0 14 0;
#X connect 15 0 16 0;
#X connect 16 0 17 0;
#X connect 18 0 19 0;
#X connect 19 0 20 0;
#X connect 21 0 22 0;
#X connect 22 0 23 0;
#X connect 24 0 22 0;
#X connect 24 0 19 0;
#X connect 24 0 16 0;
#X connect 24 0 13 0;
#X connect 24 0 10 0;
#X connect 24 0 7 0;
#X connect 24 0 4 0;
#X connect 24 0 1 0;
#X restore 32 74 pd display values without pegging the CPU;
#X obj 39 26 route 0 1 2 3 4 5 6 7;
#X floatatom 45 123 5 0 0 3 a0 - -;
#X floatatom 95 128 5 0 0 3 a1 - -;
#X floatatom 141 128 5 0 0 3 a2 - -;
#X floatatom 187 128 5 0 0 3 a3 - -;
#X obj 53 163 send knob1;
#X obj 125 163 send knob2;
#X obj 203 168 send knob3;
#X obj 292 174 send knob4;
#X text 230 159;
#X text 12 514;
#X connect 0 0 1 0;
#X connect 1 0 3 0;
#X connect 3 0 5 0;
#X connect 4 0 10 0;
#X connect 4 0 6 0;
#X connect 4 1 11 0;
#X connect 4 1 7 0;
#X connect 4 2 12 0;
#X connect 4 2 8 0;
#X connect 4 3 13 0;
#X connect 4 3 9 0;
#X connect 5 0 4 0;
#X connect 5 1 4 1;
#X connect 5 2 4 2;
#X connect 5 3 4 3;
